<svg xmlns="http://www.w3.org/2000/svg" viewBox="0 0 64 64">
  <rect width="64" height="64" rx="14" fill="#ffffff"/>
  <g fill="none" stroke="#0a0a0a" stroke-linecap="round" stroke-linejoin="round" stroke-width="3.5">
    <path d="M18.6 24.5c-.5-4.8 1.3-9.5 4.8-12.4 3.6-2.9 8.2-3.9 12.4-2.7 4.8 1.4 8.4 4.5 10.1 8.6 1.6 4.2 1 9.3-1.3 13-2.5 4.1-6.7 6.8-11.7 6.9-5 .1-9.7-2.3-12.2-5.7-1.5-2.1-2-4.8-2.1-7.7Z"/>
    <path d="M23.5 13.8c3.1.8 4.8 2.3 4.6 4.8-.1 1.7 2.5-.3 5 1.6 1.8 1.4.4 3.8-2.5 3.9-3 .1-2.6 3 .1 3.8 2.5.7 5.2 1.8 4.4 4.3-.4 1.6-2.4 2.5-2.9 5.5"/>
    <path d="M40.5 14.5c-1.3 1.9-4.6 1.2-5 3.6-.4 2.2 2.7 2.7 3.9 3.8 1.4 1.2-.2 3 1.6 3.8 1.7.8 3.3.2 4.4 1.5"/>
    <path d="M19.7 27.8c2.5.8 2.2 4 4.7 5 1.9.8 3.3 1.8 2.8 4.3"/>
    <path d="M19.5 25.7c-3.8.8-5 4.2-3.8 8 1 3.1 3.5 5.5 7 6.8"/>
    <path d="M44.7 25.4c4 .8 5.2 4.3 3.9 8.2-1.1 3.3-3.5 5.8-7 7"/>
    <path d="M17.7 34.3c2.1 5.6 6 8.5 7.8 13.5 1.2 3.5.9 7.4-1 10.6"/>
    <path d="M46.1 34c-2 5.6-5.7 8.8-7.7 13.7-1.5 3.7-1.2 7.5.9 10.6"/>
    <path d="M25.3 41.2c2.7 4.4 4.1 9.2 3.1 15.1"/>
    <path d="M38.8 41.1c-3.1 5.8-5.4 10.6-7.2 15.1"/>
    <path d="M23.2 50.8c4.7 1.2 13.4 1.2 17.6-.1"/>
    <path d="M21.7 55.2c5.5 1.6 15.7 1.6 20.7-.1"/>
    <path d="M20.9 58.8c6.6 2 17.2 1.9 22.2-.2"/>
  </g>
</svg>
